<?xml version="1.0" standalone="no"?>
<!DOCTYPE svg PUBLIC "-//W3C//DTD SVG 20010904//EN"
 "http://www.w3.org/TR/2001/REC-SVG-20010904/DTD/svg10.dtd">
<svg version="1.0" xmlns="http://www.w3.org/2000/svg"
 width="260.000000pt" height="260.000000pt" viewBox="0 0 260.000000 260.000000"
 preserveAspectRatio="xMidYMid meet">
<metadata>
Created by potrace 1.11, written by Peter Selinger 2001-2013
</metadata>
<g transform="translate(0.000000,260.000000) scale(0.100000,-0.100000)"
fill="#000000" stroke="none">
<path d="M0 1300 l0 -1300 1300 0 1300 0 0 1300 0 1300 -1300 0 -1300 0 0
-1300z m1833 477 c76 -38 132 -103 157 -185 11 -35 20 -68 20 -73 0 -5 -40 -9
-89 -9 l-89 0 -11 46 c-16 61 -58 101 -116 109 -88 14 -154 -19 -189 -94 -18
-40 -21 -65 -21 -191 0 -164 14 -221 66 -264 56 -47 174 -42 225 9 13 13 28
44 35 69 l11 46 90 0 89 0 -7 -37 c-28 -157 -142 -252 -312 -261 -126 -7 -190
15 -268 93 -85 84 -106 140 -112 305 -6 177 24 287 101 368 73 76 146 103 273
99 75 -2 100 -7 147 -30z m-1313 20 c0 -4 170 -484 196 -556 12 -30 19 -39 24
-30 5 8 50 131 100 274 51 143 97 272 102 288 l10 27 119 0 119 0 0 -425 0
-425 -91 0 -92 0 5 302 c5 241 3 296 -6 272 -7 -16 -57 -152 -111 -301 l-98
-273 -62 0 -62 0 -108 298 c-59 163 -109 298 -111 300 -1 2 0 -132 3 -297 l6
-301 -91 0 -92 0 0 425 0 425 120 0 c66 0 120 -2 120 -3z m1790 -422 l0 -425
-95 0 -95 0 0 425 0 425 95 0 95 0 0 -425z"/>
</g>
</svg>
